<svg xmlns="http://www.w3.org/2000/svg" xmlns:xlink="http://www.w3.org/1999/xlink" id="body_8" preserveAspectRatio="xMinYMin meet" viewBox="0 0 960 720"><defs><clipPath id="1"><path clip-rule="evenodd" d="M0 540L0 0L0 0L720 0L720 0L720 540L720 540L0 540z" /></clipPath><clipPath id="2"><path clip-rule="evenodd" d="M0 0L720 0L720 0L720 540L720 540L0 540z" /></clipPath></defs><g transform="matrix(1.333333 0 0 1.333333 0 0)"><g clip-path="url(#1)"><g clip-path="url(#2)"><path transform="matrix(1 0 0 -1 0 540)" d="M0 540L720 540L720 540L720 0L720 0L0 0z" stroke="none" fill="#FFFFFF" fill-rule="evenodd" /><g transform="matrix(0.7499999 0 0 -0.75 298.1 91.5)"><g transform="matrix(1 0 0 1 0 0)"><image x="0" y="0" xlink:href="img_18.png" width="218" height="122" /></g></g><g transform="matrix(0.75 0 0 -0.7500001 270 247.5001)"><g transform="matrix(1 0 0 1 0 0)"><image x="0" y="0" xlink:href="img_19.png" width="296" height="195" /></g></g><g transform="matrix(0.75 0 0 -0.7500001 146.25 380.2501)"><g transform="matrix(1 0 0 1 0 0)"><image x="0" y="0" xlink:href="img_20.png" width="356" height="177" /></g></g><g transform="matrix(0.75 0 0 -0.7500001 410.65 371.6)"><g transform="matrix(1 0 0 1 0 0)"><image x="0" y="0" xlink:href="img_21.png" width="269" height="158" /></g></g></g></g></g></svg>