<svg xmlns="http://www.w3.org/2000/svg" xmlns:xlink="http://www.w3.org/1999/xlink" id="body_2" preserveAspectRatio="xMinYMin meet" viewBox="0 0 960 720"><defs><clipPath id="1"><path clip-rule="evenodd" d="M0 540L0 0L0 0L720 0L720 0L720 540L720 540L0 540z" /></clipPath><clipPath id="2"><path clip-rule="evenodd" d="M0 0L720 0L720 0L720 540L720 540L0 540z" /></clipPath></defs><g transform="matrix(1.333333 0 0 1.333333 0 0)"><g clip-path="url(#1)"><g clip-path="url(#2)"><path transform="matrix(1 0 0 -1 0 540)" d="M0 540L720 540L720 540L720 0L720 0L0 0z" stroke="none" fill="#FFFFFF" fill-rule="evenodd" /><g transform="matrix(0.75 0 0 -0.7500001 253.1 258.7501)"><g transform="matrix(1 0 0 1 0 0)"><image x="0" y="0" xlink:href="img_05.png" width="282" height="210" /></g></g><g transform="matrix(0.75 0 0 -0.7500001 253.1 489.4)"><g transform="matrix(1 0 0 1 0 0)"><image x="0" y="0" xlink:href="img_06.png" width="293" height="195" /></g></g></g></g></g></svg>